<?xml version="1.0" standalone="no"?>
<!DOCTYPE svg PUBLIC "-//W3C//DTD SVG 20010904//EN"
 "http://www.w3.org/TR/2001/REC-SVG-20010904/DTD/svg10.dtd">
<svg version="1.0" xmlns="http://www.w3.org/2000/svg"
 width="250.000000pt" height="250.000000pt" viewBox="0 0 250.000000 250.000000"
 preserveAspectRatio="xMidYMid meet">
<metadata>
Created by potrace 1.11, written by Peter Selinger 2001-2013
</metadata>
<g transform="translate(0.000000,250.000000) scale(0.100000,-0.100000)"
fill="#000000" stroke="none">
<path d="M1454 2356 c-23 -11 -102 -50 -175 -86 -74 -35 -136 -65 -138 -67 -2
-1 -3 -418 -4 -926 l0 -925 -31 5 c-363 52 -653 253 -700 484 -53 260 195 511
594 604 l75 17 0 116 c-1 68 -5 116 -11 116 -5 -1 -34 -4 -64 -8 -213 -23
-505 -137 -675 -263 -362 -270 -401 -642 -99 -940 183 -180 523 -324 851 -359
59 -6 65 -5 185 51 67 32 151 71 186 87 l62 29 0 1044 c0 575 -3 1045 -7 1044
-5 -1 -27 -11 -49 -23z"/>
<path d="M1575 1690 c-2 -4 -4 -57 -4 -118 l0 -111 57 -12 c107 -22 302 -94
316 -117 2 -4 -39 -32 -91 -62 -85 -48 -94 -55 -72 -61 21 -6 135 -31 194 -43
11 -3 52 -11 90 -20 39 -8 82 -17 95 -19 30 -6 51 -11 160 -36 119 -27 163
-34 157 -24 -2 4 -8 49 -11 98 -4 50 -9 104 -12 120 -4 30 -7 59 -20 217 -8
99 3 96 -117 29 l-79 -43 -106 50 c-120 57 -221 93 -344 122 -103 24 -207 39
-213 30z"/>
</g>
</svg>
